<?xml version="1.0" encoding="utf-8"?>
<!-- Generator: Adobe Illustrator 27.5.0, SVG Export Plug-In . SVG Version: 6.00 Build 0)  -->
<svg version="1.1" id="Layer_1" xmlns="http://www.w3.org/2000/svg" xmlns:xlink="http://www.w3.org/1999/xlink" x="0px" y="0px"
	 viewBox="0 0 77.6 77.6" style="enable-background:new 0 0 77.6 77.6;" xml:space="preserve">
<style type="text/css">
	.st0{fill:#020202;}
</style>
<g id="Layer_2_00000057119656458616189890000012999953358384766351_">
	<g id="Black">
		<path class="st0" d="M38.8,0C17.4,0,0,17.4,0,38.8s17.4,38.8,38.8,38.8s38.8-17.4,38.8-38.8c0,0,0,0,0,0C77.6,17.4,60.3,0,38.8,0z
			 M69.4,45.4c-2.2-2.6-4.1-3.8-6.6-3.2l0,0c-0.6,4.1-2.2,8-4.7,11.2l4,4.1l-5.3-2.5c-1.9,2.1-4.1,3.9-6.6,5.2l1.9,6.8l-4.2-5.7
			c-2.6,1.1-5.3,1.7-8.1,1.8L39,70.7l-2.1-7.6c-2.9-0.2-5.7-0.9-8.3-2.1l-4.7,6.4l2.2-7.8c-2-1.2-3.8-2.7-5.4-4.4l-6.4,3.4l4.8-5.4
			c-2.3-3.1-3.8-6.7-4.4-10.6l0,0c-1.7,1-5.3,0.6-5.3-1.6c0-1.1,1.3-1.9,2.1-2.2c-0.8,0-2.6-0.5-2.5-1.8s2.6-3.3,5.6-1.2l0,0
			c0.5-4,2-7.9,4.3-11.2l-4.9-5l6.5,3c1.7-1.9,3.6-3.5,5.7-4.8L24,10.1l4.8,6.4c2.4-1.1,5-1.7,7.6-2L37,6.5l2.2,8c0.3,0,0.6,0,0.9,0
			c2.5,0.1,5,0.7,7.4,1.6l4.6-6.3l-2.1,7.4c2.2,1.1,4.2,2.6,5.9,4.4l5.8-3.1l-4.2,4.8c1.9,2.3,3.4,5,4.3,7.8l0,0
			c1.2-3.1,5.3-5,10.1-4.5C65.4,31,67,39.6,69.4,45.4z"/>
		<path class="st0" d="M25.1,29c-1.4-0.1-2.6,1-2.7,2.4c-0.1,1.4,1,2.6,2.4,2.7c1.4,0.1,2.6-1,2.7-2.4C27.5,30.3,26.5,29.1,25.1,29
			C25.1,29,25.1,29,25.1,29z"/>
	</g>
</g>
</svg>
