<svg xmlns="http://www.w3.org/2000/svg" viewBox="0 0 79.31 79.31"><title>Bulk_Fake_Experts_Fallacy_Icon</title><g id="Layer_2" data-name="Layer 2"><g id="Black"><path id="Path_554" data-name="Path 554" d="M39.65,0A39.66,39.66,0,1,0,79.31,39.65h0A39.66,39.66,0,0,0,39.65,0ZM56,14.56a4.59,4.59,0,1,1-4.58,4.58A4.58,4.58,0,0,1,56,14.56ZM39.58,9.85a5.5,5.5,0,1,1-5.5,5.5,5.5,5.5,0,0,1,5.5-5.5ZM23,14.56a4.59,4.59,0,1,1-4.58,4.58A4.58,4.58,0,0,1,23,14.56Zm5.66,47.81a2.15,2.15,0,0,1-4.3.09V46.88a1.31,1.31,0,0,0-2.61,0V62.37a2.14,2.14,0,0,1-2.14,2.15,2.16,2.16,0,0,1-2.16-2.15h0V31.68a.79.79,0,1,0-1.57-.15.38.38,0,0,0,0,.15V44a1.65,1.65,0,0,1-3.3,0h0V30.27a4.67,4.67,0,0,1,4.67-4.67h8.08a7.66,7.66,0,0,0-.53,2.81V44.77A4.3,4.3,0,0,0,28.69,49Zm19.46-17.6V30.08A.89.89,0,1,0,46.37,30v36.6a2.61,2.61,0,1,1-5.21,0V48.18a1.51,1.51,0,0,0-3-.07V66.62a2.61,2.61,0,0,1-5.22,0V30.08a.88.88,0,0,0-.91-.86.9.9,0,0,0-.87.86V44.77a2,2,0,0,1-4,.08V28.4a5.61,5.61,0,0,1,5.61-5.61H46.57a5.61,5.61,0,0,1,5.61,5.61V44.77a2,2,0,1,1-4,.08.11.11,0,0,1,0-.08ZM66.55,44a1.65,1.65,0,1,1-3.3.08V31.68a.79.79,0,1,0-1.57-.15.38.38,0,0,0,0,.15V62.37a2.15,2.15,0,0,1-4.3,0h0V46.88a1.31,1.31,0,0,0-2.61,0V62.37a2.15,2.15,0,0,1-4.3,0h0V49.05a4.32,4.32,0,0,0,4-4.28V28.4A7.74,7.74,0,0,0,54,25.59h7.93a4.69,4.69,0,0,1,4.67,4.67Z"/></g></g></svg>