<svg xmlns="http://www.w3.org/2000/svg" viewBox="0 0 79.31 79.31"><title>Fake_Debate_Fallacy_Icon</title><g id="Layer_2" data-name="Layer 2"><g id="Black"><g id="Group_160" data-name="Group 160"><path id="Path_555" data-name="Path 555" d="M40.56,18.68a2.26,2.26,0,1,0,2.26,2.26A2.26,2.26,0,0,0,40.56,18.68Z"/><path id="Path_556" data-name="Path 556" d="M12.82,40.25h17.8l-8.9-16.36Z"/><path id="Path_557" data-name="Path 557" d="M39.65,0A39.66,39.66,0,1,0,79.31,39.65,39.65,39.65,0,0,0,39.65,0ZM59.4,49.52c-7.38,0-12.81-3.23-12.89-7.68v-.62l.21-.24,10.1-18.55H45.56A5.25,5.25,0,0,1,42,26v35.1H59.4v3H21.72v-3H39V25.94a5.26,5.26,0,0,1-3.47-3.51H24.31L34.43,41l0,0a1.46,1.46,0,0,1,.21.79c-.08,4.47-5.5,7.7-12.89,7.7S8.92,46.3,8.83,41.84v-.62L9,41,20.29,20.31a1.61,1.61,0,0,1,1.43-.85H35.57a5.2,5.2,0,0,1,10,0H59.4a1.63,1.63,0,0,1,1.44.85L72.11,41h0a1.66,1.66,0,0,1,.21.81c-.08,4.44-5.51,7.68-12.89,7.68Z"/><path id="Path_558" data-name="Path 558" d="M50.5,40.25H68.3L59.4,23.89Z"/></g></g></g></svg>