<?xml version="1.0" encoding="utf-8"?>
<!-- Generator: Adobe Illustrator 27.5.0, SVG Export Plug-In . SVG Version: 6.00 Build 0)  -->
<svg version="1.1" id="Layer_1" xmlns="http://www.w3.org/2000/svg" xmlns:xlink="http://www.w3.org/1999/xlink" x="0px" y="0px"
	 viewBox="0 0 79.3 79.3" style="enable-background:new 0 0 79.3 79.3;" xml:space="preserve">
<style type="text/css">
	.st0{fill:#020202;}
</style>
<g id="Layer_2_00000145020702918936510230000011918402155009436820_">
	<g id="Black">
		<path class="st0" d="M39.7,0C17.7,0,0,17.8,0,39.7s17.8,39.7,39.7,39.7s39.7-17.8,39.7-39.7c0,0,0,0,0,0C79.3,17.8,61.6,0,39.7,0
			C39.7,0,39.7,0,39.7,0z M40.9,45.4c-0.5,1.2-3.7,2.2-5.9,3.5c-1.7,1-0.7,3.9-0.7,3.9s1,2,0.5,2.5c-0.5,0.5-1.1,0.9-1.7,1.2
			c0,0,1.7,2.2,0.7,3.5s-3,3-2,4.2c1,1.2,2,6.2-2,8.4c-0.6,0.3-1.2,0.6-1.8,0.8C9.3,67-0.6,46.6,5.8,28C9.3,17.7,17.4,9.6,27.6,6
			c3.2,6.2,5.3,15,5.1,16.7c-0.2,2-1.4,3.5-1,5.9c0.6,3.4,3.6,6.5,5.7,9.1C40.6,42,41.8,43,40.9,45.4z M64.6,59.6
			c-2.5-1.4-1.9-4.5-1.3-5.3s-0.6-1.9-1.2-2.7s0.5-2.2,0.5-2.2c-0.4-0.2-0.8-0.5-1.1-0.8c-0.3-0.3,0.3-1.6,0.3-1.6s0.6-1.9-0.5-2.5
			c-1.4-0.8-3.5-1.5-3.8-2.2c-0.6-1.6,0.2-2.2,2.2-4.8c1.3-1.7,3.2-3.7,3.6-5.8c0.3-1.5-0.5-2.5-0.6-3.8s1.5-7.9,3.9-11.8
			c11,12.6,11.8,31,1.9,44.5C67.1,60.6,65.8,60.3,64.6,59.6z"/>
	</g>
</g>
</svg>
