<svg xmlns="http://www.w3.org/2000/svg" viewBox="0 0 77.64 77.63"><title>Misrepresentation_Fallacy_Icon</title><g id="Layer_2" data-name="Layer 2"><g id="Black"><path d="M25.89,46.56c2.54,6.25,7,10.4,12,10.4S47.45,52.81,50,46.56a17.12,17.12,0,0,1-24.1,0Z"/><path d="M36.54,34.64a29.13,29.13,0,0,0-14.68,0,8.23,8.23,0,0,0,7.34,4.84A8.23,8.23,0,0,0,36.54,34.64Z"/><path d="M48.37,39.48a8.2,8.2,0,0,0,7.33-4.84,29.09,29.09,0,0,0-14.67,0A8.21,8.21,0,0,0,48.37,39.48Z"/><path d="M38.82,0A38.82,38.82,0,1,0,77.64,38.82,38.82,38.82,0,0,0,38.82,0ZM38.7,68.46c-10.61,0-22.94-13.84-22.83-46.69,11.05-9.72,33.29-10,45.66,0C61.54,53.88,49.31,68.46,38.7,68.46Z"/></g></g></svg>