<svg xmlns="http://www.w3.org/2000/svg" viewBox="0 0 77.63 77.63"><title>Oversimplification_Fallacy_Icon</title><g id="Layer_2" data-name="Layer 2"><g id="Black"><path d="M38.74,17.65C26.2,17.65,16,19.56,16,21.92S26.2,26.2,38.74,26.2s22.72-1.92,22.72-4.28S51.29,17.65,38.74,17.65Z"/><path d="M38.82,0A38.82,38.82,0,1,0,77.63,38.82,38.82,38.82,0,0,0,38.82,0ZM65.74,23.25h0a3.29,3.29,0,0,1-.41.43L45.07,45.23,43.89,65.15c-.63,4.8-9.51,4.17-10,0L32.75,45.23,12.35,23.62a3.58,3.58,0,0,1-.27-.29h0a2,2,0,0,1-.51-1.26c0-3.57,12.23-6.46,27.32-6.46S66.2,18.49,66.2,22.06a1.94,1.94,0,0,1-.46,1.19Z"/></g></g></svg>