<svg xmlns="http://www.w3.org/2000/svg" viewBox="0 0 77.36 77.36"><title>Reinterpreting_Randomness_Fallacy_Icon</title><g id="Layer_2" data-name="Layer 2"><g id="Black"><path d="M38.68,0A38.68,38.68,0,1,0,77.36,38.68,38.68,38.68,0,0,0,38.68,0Zm24,43.8A7.81,7.81,0,0,1,61,43.61L55.92,54.93a6.23,6.23,0,1,1-10.21,5L29.78,56.17a8,8,0,1,1-7.2-11.41h.2L25.15,35A12.6,12.6,0,1,1,42.3,23.21,12.21,12.21,0,0,1,42,25.79l14,5.59A8,8,0,1,1,62.72,43.8Z"/><path d="M54.73,35.81a8.43,8.43,0,0,1,.12-1.33L40.91,28.94A12.59,12.59,0,0,1,29.7,35.81a11.38,11.38,0,0,1-1.31-.07L26,45.55a8,8,0,0,1,4.53,7.19c0,.06,0,.12,0,.18L46.48,56.7a6.22,6.22,0,0,1,5.45-3.22,6,6,0,0,1,1,.08L58,42.23A8,8,0,0,1,54.73,35.81Z"/></g></g></svg>