<svg xmlns="http://www.w3.org/2000/svg" viewBox="0 0 77.63 77.63"><title>Slippery_Slope_Fallacy_Icon</title><g id="Layer_2" data-name="Layer 2"><g id="Black"><path d="M38.81,0A38.82,38.82,0,1,0,77.63,38.82,38.82,38.82,0,0,0,38.81,0ZM46,7.42a6.87,6.87,0,1,1-.85,9.68A6.87,6.87,0,0,1,46,7.42ZM20,62.17a1,1,0,0,1-.91.54h-.17l-7.07-1.13a1,1,0,1,1,.32-2l4.26.68-2.87-3.31a1,1,0,1,1,1.56-1.37L19.86,61A1,1,0,0,1,20,62.17Zm3.4,1c-.83-3.15-4.5-11.21-5.05-13.78s1-4.58,3.51-5.28l4.93-1.41c-2.61-2.22-5.47-4.59-5.47-4.59a110.79,110.79,0,0,1-6.46,9.63c-2.42,2.83-7.7-1.05-5.2-4.09,2.06-2.52,6.42-10.23,8.18-12.19s4.32-1.85,6.33-.26c1.5,1.19,6.83,5.21,10.27,7.77a9.62,9.62,0,0,0,1.82-2.51c-.72,1.5,3.08-5.68,4.67-8.76-1.86.51-4,1.5-6,1.88s-3.16-1.49-4.17-3.41c-.24-.45-4.85-9.51-5-9.84-1.06-2.77,2.75-4.58,3.88-1.58.94,2.52,5.84,10.44,5.84,10.44,1.68-.61,6.24-2.33,8.06-3,2.76-1,5.89-1.32,7.77.92a5.31,5.31,0,0,1,.7,5.75c-1,2.55-4.85,11.75-6.79,14.48a10.29,10.29,0,0,1-7.34,4.26c-1.9.25-12.12,2.88-12.12,2.88a112,112,0,0,1,4,10.88C30.62,65,24.38,66.94,23.39,63.14ZM39,54.53a1,1,0,0,1,1.37,1.57l-5.46,4.75a1.1,1.1,0,0,1-.69.25,1,1,0,0,1-.5-.13,1,1,0,0,1-.52-1.07l1.12-7.08a1,1,0,1,1,2,.33L35.7,57.4ZM38.81,73.8a34.8,34.8,0,0,1-11.5-2L73.66,35.94c.07,1,.14,1.9.14,2.88A35,35,0,0,1,38.81,73.8Z"/></g></g></svg>