<?xml version="1.0" encoding="utf-8"?>
<!-- Generator: Adobe Illustrator 27.5.0, SVG Export Plug-In . SVG Version: 6.00 Build 0)  -->
<svg version="1.1" id="Layer_1" xmlns="http://www.w3.org/2000/svg" xmlns:xlink="http://www.w3.org/1999/xlink" x="0px" y="0px"
	 viewBox="0 0 77.6 77.6" style="enable-background:new 0 0 77.6 77.6;" xml:space="preserve">
<style type="text/css">
	.st0{fill:#020202;}
</style>
<g id="Layer_2_00000098179472842735999090000001951134597658955709_">
	<g id="Black">
		<path class="st0" d="M70.4,16.4l-23.5,1.3c-1.1,5.2-1.6,10.5-1.5,15.8c0,1,0,2,0.1,3c2.2-4.9,7.1-7.4,12.6-7.4
			c7.7,0,14.6,5.3,14.6,13.3c0,3.5-1.9,7.2-3.8,9.7l0,0c-4.1,6.1-11.2,11-19.3,13.9l-0.8,0.3l-0.5,0.2l-0.6,0.2L47,66.8L46.4,67
			l-0.6,0.2l-0.7,0.2l-0.5,0.1c-0.4,0.1-0.7,0.2-1.1,0.3l-0.5,0.1L42.4,68l-0.5,0.1l-0.7,0.1l-0.5,0.1l-0.8,0.1l-0.4,0.1l-1.2,0.2
			H38l-0.9,0.1h-0.4h-0.8h-0.5h-0.8h-0.4L33,69c-0.6,0-1.1,0-1.7,0c-0.2,0-0.4,0-0.6,0l-1-0.1L29,68.8l-0.9-0.1l-0.7-0.1l-0.8-0.1
			l-0.7-0.2l-0.7-0.2L24.3,68l-0.6-0.2L23,67.5l-0.5-0.2L21.6,67l-0.5-0.2l-0.8-0.3L20,66.3l-0.7-0.4l-0.4-0.2
			c-0.2-0.1-0.5-0.3-0.7-0.4s-0.2-0.1-0.4-0.2s-0.5-0.3-0.7-0.5l-0.3-0.2l-0.7-0.6l-0.3-0.2c-0.2-0.2-0.5-0.4-0.7-0.7l-0.2-0.2
			c-0.2-0.2-0.4-0.5-0.7-0.7l-0.2-0.2L13.4,61l-0.2-0.2c-0.2-0.3-0.4-0.5-0.6-0.8l-0.1-0.2c-0.2-0.3-0.4-0.6-0.6-0.9l-0.1-0.2
			c-0.2-0.3-0.4-0.6-0.5-0.9l-0.1-0.1c-0.2-0.3-0.3-0.6-0.5-1c0,0,0-0.1-0.1-0.1c-0.2-0.3-0.3-0.7-0.5-1.1v-0.1
			c-0.1-0.4-0.3-0.7-0.4-1.1v-0.1c-0.1-0.4-0.3-0.8-0.4-1.2l0,0c-0.1-0.4-0.2-0.8-0.4-1.2l0,0c-0.1-0.4-0.2-0.8-0.3-1.3l0,0
			c-0.1-0.4-0.2-0.9-0.3-1.3l0,0c-0.5-2.8-0.8-5.7-0.8-8.6c0-7.6,2.5-15,7-21l-9.8,0.6C-5.5,39,1.3,62.7,20,73.1s42.4,3.6,52.8-15.1
			c3.2-5.8,4.9-12.4,4.9-19.1C77.6,30.8,75.1,22.9,70.4,16.4z"/>
		<path class="st0" d="M28.4,35.7c0.7,0,1.5,0,2.2,0c0.9-6.5,3.6-12.5,7.8-17.5L23.9,19c-0.9,4.8-1.3,9.6-1.2,14.5
			c0,0.8,0,1.7,0.1,2.5C24.6,35.8,26.5,35.7,28.4,35.7z"/>
		<path class="st0" d="M55.9,37.5c0.1-0.5-0.2-1-0.7-1.1c-0.5-0.1-1,0.2-1.1,0.7c0,0,0,0.1,0,0.1c-0.1,0.5,0.3,1,0.8,1.1
			C55.3,38.4,55.8,38.1,55.9,37.5C55.9,37.6,55.9,37.6,55.9,37.5z"/>
		<path class="st0" d="M62.2,44.2c-0.6-1.1-0.3-2.5,0.8-3.1c1.2-0.7,2.6-0.3,3.7,1.1c0.7,1.1,1.3,2.3,1.8,3.5c0,0,0-0.1,0.1-0.1
			c1.9-4.2-0.8-9.6-6-11.9c-4.3-2-9-1.2-11.6,1.6c1.2-0.2,2.5-0.3,3.7-0.2c1.8,0.2,2.8,1.2,2.8,2.5c0,1.3-1,2.3-2.3,2.3c0,0,0,0,0,0
			c-2.1-0.1-4.1,0.2-6.1,0.8c0.3,3.3,2.7,6.7,6.5,8.4c2.8,1.3,6,1.4,8.9,0.3C64,47.5,63.2,45.8,62.2,44.2z"/>
		<path class="st0" d="M63.9,42.5c-0.4,0.3-0.5,0.9-0.2,1.3c0.3,0.4,0.9,0.5,1.3,0.2c0,0,0.1-0.1,0.1-0.1c0.4-0.3,0.4-0.9,0.1-1.3
			c0,0,0,0,0,0C64.8,42.2,64.3,42.2,63.9,42.5C63.9,42.5,63.9,42.5,63.9,42.5z"/>
		<path class="st0" d="M61.8,7.6c-14.9-11-35.6-9.9-49.2,2.8L61.8,7.6z"/>
	</g>
</g>
</svg>
